<?xml version="1.0" encoding="UTF-8"?>
<svg id="Layer_1" data-name="Layer 1" xmlns="http://www.w3.org/2000/svg" viewBox="0 0 183.5 193">
  <defs>
    <style>
      .cls-1 {
        fill: #737438;
      }
    </style>
  </defs>
  <path class="cls-1" d="M93.98,124.55l-2.27-1.86c.38-1.43,3.36-3.33,5.1-3.05l-2.83,4.91Z"/>
  <g>
    <path class="cls-1" d="M122.66,76.72c-1.37.31-2.8.06-3.95,1.3,3.07,3.18,10.98,3.32,13.39,6.1.84.98.28,2.32-.66,3.1-.85.7-2.14.9-3.31.71-5.8-.91-8.27-6.86-17.26-1.74-4.97,2.83-11.36,2.38-15.76-1.29-3.61-3.01-5.41-7.52-4.66-12.06.39-2.4,1.31-4.81,2.62-6.84l3.68-5.71c1.16-1.8,2.18-3.62,3.42-5.4.85-1.22,1.97-2.31,2.49-3.65l.89-2.3c.73-1.9,1.75-4.87,3.32-5.91.65-.43,1.31-.37,1.98-.11.99.38,1.77,1.12,1.69,2.28-.09,1.38-.84,2.6-1.47,3.82l-1.25,2.38c-.27.51-.45,1.53-.5,2.11-.09,1.13.86,1.87,1.84,1.99,1.23.15,2.36-.26,3.44-.88,1.78-1.01,2.96-2.55,3.96-4.28l1.55-2.69,3.17-5.1c.96-1.54,1.88-2.96,2.99-4.44.74-.97,2.64-1.37,3.7-.73,1.22.74,1.89,2.58,1.53,3.86-.55,1.93-1.73,3.47-3.07,4.83l-2.13,2.14c-2.3,2.32-4.09,5.04-5.89,7.8-.47.73-3.22,4.92-1.68,5.29,2.5-.56,4.83-1.8,7.03-3.08l4.17-2.44,8.16-5.17c1.22-.77,2.54-.92,3.89-.47,1.49.5,2.08,2.33,1.21,3.74-.65,1.05-1.66,1.93-2.84,2.57l-6.72,3.62-6.47,4.7-5.88,3.9c-.36.24-.78.91-.84,1.33.44.55,1.3.87,1.93.75l2.18-.42,3.26-.65,3.85-.84,3.13-.68,5.97-1.49c1.63-.41,3.21-.84,4.8.12.64.39,1.29,1.57,1.12,2.34-.24,1.08-1.03,1.84-1.91,2.44-1.71,1.16-3.74,1.39-5.75,1.82l-3.14.68-5.92,1.42-5.28,1.2Z"/>
    <path class="cls-1" d="M143.43,51.77c-.72-.79-1.24-1.63-1.68-2.62l4.13-.87c1.37-.29-.52,3.07-2.45,3.5Z"/>
    <path class="cls-1" d="M129.78,37.1l-2.18-1.58,3.8-3.16c.21,1.82-.76,3.16-1.62,4.73Z"/>
  </g>
  <path class="cls-1" d="M102.21,138.1c-.33.43-1.17-.21-1.36-.59-.23-.45-.39-.96-.24-1.4l3.93-1.6c-.73,1.28-1.38,2.34-2.33,3.59Z"/>
  <path class="cls-1" d="M133.97,87.93c-.11-.21.32-2.58.56-2.84,1.47.3,2.61.9,3.63,1.99l-4.2.85Z"/>
  <path class="cls-1" d="M150.52,66.68c-.4,1.74-2.23,2.07-3.75,2.37l-.45-2.28,4.2-.09Z"/>
  <path class="cls-1" d="M101.33,152.95c0,1.79-1.7,2.53-3.11,3.17l-.96-2.12,4.07-1.04Z"/>
  <g>
    <path class="cls-1" d="M81.18,157.31c2.51,1.59,7.07-1.13,9.16-2.29,1.7-.94,3.82-.93,5.27.23,1.07.86,1.26,2.2.53,3.4-.92,1.53-2.59,2.71-4.41,3.12l-9,1.99c-6.78,1.5-17.7,7.75-23.86,11.39l-11.26,6.67c-4.38,2.6-8.5,4.92-13.7,4.08-3.08-.5-5.91-2.12-7.33-5.04s-1.21-6.11,0-9.03c.67-1.62,1.95-2.81,3.18-4.08,1.51-1.56,2.8-3.15,4.17-4.82l7.12-8.67,1.68-2.03,5.45-6.72c2.08-2.56,2.96-5.54,3.07-8.72.11-3.45,2.85-9.49,5.95-8.17.79.33,1.5,1.26,1.53,2.25.12,4.11-2.31,7.1-1.83,9.31.13.61,1.37.78,1.89.55,3.54-1.54,5.89-5.31,7.4-8.77l3.22-7.33c.91-2.07,2.99-6.45,5.83-5.43.67.24,1.33.52,1.61,1.09s.38,1.31.17,1.97c-1.51,4.67-5.49,8.47-7.09,11.71-.45.91-1.06,1.79-1.11,2.84-.05.84.73,2.07,1.48,2.28,2.5-.28,4.46-1.65,6.2-3.38l11.25-11.17c1.28-.59,3.38-.44,4.21.61.9,1.13.78,3.01-.03,4.07-1.22,1.6-2.91,3.51-4.33,4.75l-6.46,5.61c-.95.83-4.14,3.89-2.98,5.09.29.3,1.26.65,1.68.52,2.8-.89,5.5-2.24,8.1-3.8,2.25-1.35,6.37-4.06,8.9-4.05,1.43-.45,3.3.17,3.49,1.85.14,1.18-.63,2.34-1.45,3.19-1.44,1.49-3.29,2.41-5.24,3.07-4.31,1.46-10.73,5.77-12.63,9.82-.29.61-.37,1.69.19,2.05Z"/>
    <path class="cls-1" d="M77.82,117.98l-2.45-.77c1.09-1.76,2.37-3.3,4.45-3.57l-2,4.34Z"/>
  </g>
</svg>